<svg xmlns="http://www.w3.org/2000/svg" width="1200" height="800" viewBox="0 0 1200 800" role="img" aria-label="Equipment photo placeholder">
  <defs>
    <linearGradient id="bg" x1="0" x2="1" y1="0" y2="1">
      <stop offset="0%" stop-color="#f4f7fb" />
      <stop offset="100%" stop-color="#e6edf7" />
    </linearGradient>
    <linearGradient id="accent" x1="0" x2="1" y1="0" y2="1">
      <stop offset="0%" stop-color="#0b6ef5" />
      <stop offset="100%" stop-color="#12a57b" />
    </linearGradient>
  </defs>
  <rect width="1200" height="800" fill="url(#bg)" />
  <rect x="80" y="120" width="1040" height="560" rx="28" fill="#ffffff" stroke="#d6dde6" stroke-width="2" />
  <rect x="140" y="180" width="360" height="220" rx="18" fill="#f0f4fa" stroke="#d6dde6" stroke-width="2" />
  <rect x="540" y="180" width="520" height="320" rx="18" fill="#f0f4fa" stroke="#d6dde6" stroke-width="2" />
  <rect x="140" y="440" width="360" height="180" rx="18" fill="#f0f4fa" stroke="#d6dde6" stroke-width="2" />
  <rect x="540" y="520" width="520" height="100" rx="18" fill="#f0f4fa" stroke="#d6dde6" stroke-width="2" />
  <rect x="180" y="220" width="280" height="20" rx="10" fill="url(#accent)" />
  <rect x="180" y="260" width="220" height="12" rx="6" fill="#c6d3e5" />
  <rect x="580" y="220" width="360" height="18" rx="9" fill="url(#accent)" />
  <rect x="580" y="260" width="300" height="12" rx="6" fill="#c6d3e5" />
  <rect x="180" y="480" width="220" height="16" rx="8" fill="#c6d3e5" />
  <rect x="180" y="510" width="180" height="10" rx="5" fill="#d7e2f0" />
  <text x="140" y="110" font-family="Space Grotesk, Arial" font-size="20" fill="#4b5a6b">Equipment photo placeholder</text>
  <text x="980" y="110" font-family="Space Grotesk, Arial" font-size="18" fill="#0f1720">TIORA</text>
</svg>
